<svg width="40" height="40" viewBox="0 0 40 40" fill="none" xmlns="http://www.w3.org/2000/svg">
<g clip-path="url(#clip0_104_958)">
<path d="M32.5127 11.4706L27.7656 6.50695C27.4519 6.18227 27.0274 6 26.5849 6C26.1424 6 25.7179 6.18227 25.4042 6.50695L8.57499 23.989L7.03845 30.8877C6.98545 31.1398 6.98726 31.4012 7.04377 31.6525C7.10028 31.9039 7.21005 32.1389 7.36506 32.3405C7.52007 32.5421 7.71641 32.7051 7.93974 32.8176C8.16306 32.9301 8.40773 32.9893 8.65586 32.9909C8.77148 33.003 8.88799 33.003 9.00361 32.9909L15.7078 31.3924L32.5127 13.9272C32.8248 13.6008 33 13.1592 33 12.6989C33 12.2385 32.8248 11.7969 32.5127 11.4706ZM14.8991 29.8781L8.61543 31.2494L10.0468 24.8387L22.6384 11.7903L27.4906 16.838L14.8991 29.8781ZM28.5743 15.6182L23.7221 10.5704L26.5363 7.65953L31.3077 12.7073L28.5743 15.6182Z" fill="black"/>
</g>
<defs>
<clipPath id="clip0_104_958">
<rect width="40" height="40" fill="white"/>
</clipPath>
</defs>
</svg>
