<svg width="35" height="35" viewBox="0 0 35 35" fill="none" xmlns="http://www.w3.org/2000/svg">
<mask id="path-1-inside-1_121_1101" fill="white">
<path fill-rule="evenodd" clip-rule="evenodd" d="M6.14902 8.14911C3.28353 11.0146 3.28354 15.6605 6.14902 18.5259L7.41346 19.7904L7.38081 19.823L15.951 28.3932C16.0694 28.5116 16.1966 28.616 16.3305 28.7064C17.1798 29.5133 18.5226 29.5002 19.3559 28.6669L28.1998 19.823L28.1671 19.7904L29.4315 18.5259C32.297 15.6605 32.297 11.0146 29.4316 8.14911C26.5661 5.28363 21.9202 5.28363 19.0547 8.14911L17.7903 9.41356L16.5258 8.14911C13.6604 5.28363 9.0145 5.28363 6.14902 8.14911Z"/>
</mask>
<path d="M6.14902 18.5259L5.08836 19.5866L5.08836 19.5866L6.14902 18.5259ZM6.14902 8.14911L7.20968 9.20977L6.14902 8.14911ZM7.41346 19.7904L8.47412 20.851L9.53478 19.7904L8.47412 18.7297L7.41346 19.7904ZM7.38081 19.823L6.32015 18.7624L5.25949 19.823L6.32015 20.8837L7.38081 19.823ZM15.951 28.3932L14.8903 29.4538L14.8903 29.4538L15.951 28.3932ZM16.3305 28.7064L17.3637 27.6189L17.2731 27.5329L17.1695 27.463L16.3305 28.7064ZM19.3559 28.6669L18.2952 27.6063L18.2952 27.6063L19.3559 28.6669ZM28.1998 19.823L29.2604 20.8837L30.3211 19.823L29.2604 18.7624L28.1998 19.823ZM28.1671 19.7904L27.1064 18.7297L26.0458 19.7904L27.1064 20.851L28.1671 19.7904ZM29.4315 18.5259L28.3709 17.4653L28.3709 17.4653L29.4315 18.5259ZM29.4316 8.14911L30.4922 7.08845L30.4922 7.08845L29.4316 8.14911ZM19.0547 8.14911L20.1154 9.20977L20.1154 9.20977L19.0547 8.14911ZM17.7903 9.41356L16.7296 10.4742L17.7903 11.5349L18.8509 10.4742L17.7903 9.41356ZM16.5258 8.14911L17.5865 7.08845L17.5865 7.08845L16.5258 8.14911ZM7.20968 17.4653C4.92999 15.1856 4.92998 11.4895 7.20968 9.20977L5.08836 7.08845C1.63709 10.5397 1.6371 16.1353 5.08836 19.5866L7.20968 17.4653ZM8.47412 18.7297L7.20968 17.4653L5.08836 19.5866L6.3528 20.851L8.47412 18.7297ZM6.3528 18.7297L6.32015 18.7624L8.44147 20.8837L8.47412 20.851L6.3528 18.7297ZM6.32015 20.8837L14.8903 29.4538L17.0116 27.3325L8.44147 18.7624L6.32015 20.8837ZM14.8903 29.4538C15.077 29.6405 15.2784 29.806 15.4914 29.9497L17.1695 27.463C17.1148 27.4261 17.0619 27.3828 17.0116 27.3325L14.8903 29.4538ZM18.2952 27.6063C18.0387 27.8628 17.6248 27.867 17.3637 27.6189L15.2973 29.7938C16.7349 31.1596 19.0066 31.1375 20.4165 29.7276L18.2952 27.6063ZM27.1391 18.7624L18.2952 27.6063L20.4165 29.7276L29.2604 20.8837L27.1391 18.7624ZM27.1064 20.851L27.1391 20.8837L29.2604 18.7624L29.2278 18.7297L27.1064 20.851ZM29.2278 20.851L30.4922 19.5866L28.3709 17.4653L27.1064 18.7297L29.2278 20.851ZM30.4922 19.5866C33.9435 16.1353 33.9435 10.5397 30.4922 7.08845L28.3709 9.20977C30.6506 11.4895 30.6506 15.1856 28.3709 17.4653L30.4922 19.5866ZM30.4922 7.08845C27.0409 3.63718 21.4453 3.63718 17.9941 7.08845L20.1154 9.20977C22.3951 6.93008 26.0912 6.93008 28.3709 9.20977L30.4922 7.08845ZM17.9941 7.08845L16.7296 8.3529L18.8509 10.4742L20.1154 9.20977L17.9941 7.08845ZM15.4652 9.20977L16.7296 10.4742L18.8509 8.3529L17.5865 7.08845L15.4652 9.20977ZM7.20968 9.20977C9.48937 6.93008 13.1855 6.93008 15.4652 9.20977L17.5865 7.08845C14.1352 3.63718 8.53962 3.63718 5.08836 7.08845L7.20968 9.20977Z" fill="#474747" mask="url(#path-1-inside-1_121_1101)"/>
</svg>
