<svg width="35" height="35" viewBox="0 0 35 35" fill="none" xmlns="http://www.w3.org/2000/svg">
<path d="M24.3809 16.8117C23.5565 18.5006 22.172 19.8514 20.4633 20.6339C18.7545 21.4164 16.8274 21.5822 15.0101 21.1031C13.1929 20.624 11.598 19.5296 10.4971 18.0064C9.39632 16.4831 8.85771 14.6254 8.97309 12.7496C9.08846 10.8737 9.85067 9.09597 11.1299 7.71914C12.409 6.34232 14.1261 5.45162 15.9883 5.19882C17.8506 4.94603 19.7429 5.34677 21.3428 6.33277C22.9428 7.31877 24.1513 8.82902 24.7626 10.6062" stroke="#474747" stroke-width="1.5"/>
<path d="M10.4261 21.3821L5.25 30.625" stroke="#474747" stroke-width="1.5"/>
<path d="M23.7361 21.3821L28.9121 30.625" stroke="#474747" stroke-width="1.5"/>
</svg>
