<svg width="147" height="47" viewBox="0 0 147 47" fill="none" xmlns="http://www.w3.org/2000/svg">
<rect x="0.25" y="4.75" width="37.5" height="37.5" stroke="#474747" stroke-width="0.5"/>
<rect x="3.67749" y="8.17741" width="2.45161" height="30.6452" fill="#474747"/>
<rect x="8.83069" y="19.4597" width="5.62903" height="19.1129" stroke="#474747" stroke-width="0.5"/>
<rect x="30.6451" y="32.6935" width="3.67742" height="6.12903" fill="#474747"/>
<rect x="31.213" y="14.6019" width="2.31482" height="16.3889" stroke="#474747" stroke-width="0.5"/>
<rect x="8.58069" y="8.17741" width="6.12903" height="9.80645" fill="#474747"/>
<path d="M55.408 13.886C56.574 13.138 57.872 11.994 59.06 10.652V12.5C59.06 14.15 59.038 15.756 58.994 17.428C58.994 17.67 59.06 17.846 59.434 17.846C60.116 17.846 60.556 17.362 60.556 17.076V16.526H72.238C72.678 16.526 72.876 16.394 72.876 16.108C72.876 15.69 71.622 14.92 70.83 14.568C70.456 15.008 70.17 15.426 69.884 15.888H66.1V14.084H70.808C71.182 14.084 71.38 13.996 71.38 13.71C71.38 13.336 70.236 12.654 69.532 12.346C69.224 12.676 68.96 13.094 68.762 13.446H66.1V11.73H70.72C71.094 11.73 71.314 11.642 71.314 11.334C71.314 10.938 70.236 10.3 69.488 9.992C69.18 10.344 68.96 10.74 68.762 11.092H66.1V9.376H71.864C72.282 9.376 72.568 9.222 72.568 8.936C72.568 8.518 71.226 7.748 70.522 7.44C70.148 7.88 69.884 8.276 69.62 8.738H66.188C66.43 8.518 66.584 8.166 66.584 7.858C66.584 7.154 65.506 6.362 63.966 5.526C63.724 5.394 63.57 5.394 63.46 5.504C63.306 5.658 63.416 5.79 63.57 5.922C64.758 6.956 64.956 8.034 65.044 8.54C65.066 8.606 65.066 8.672 65.088 8.738H60.6C60.974 8.232 61.326 7.682 61.634 7.154C62.228 7.22 62.558 7.132 62.558 6.846C62.558 6.494 61.546 5.768 60.446 5.526C59.39 9.486 56.332 12.302 55.012 13.358C54.748 13.556 54.528 13.688 54.682 13.886C54.836 14.106 55.122 14.062 55.408 13.886ZM60.556 11.092V9.376H64.604V11.092H60.556ZM60.556 13.446V11.73H64.604V13.446H60.556ZM60.556 15.888V14.084H64.604V15.888H60.556ZM75.054 23.126C74.042 23.038 69.862 22.576 66.738 19.474H73.36C73.932 19.474 74.152 19.32 74.152 19.056C74.152 18.55 72.7 17.714 71.842 17.34C71.402 17.824 71.094 18.286 70.786 18.836H65.792V18.022C66.32 18 66.606 17.846 66.606 17.56C66.606 17.164 65.594 16.834 64.296 16.724V18.836C61.238 18.836 58.51 18.77 55.496 18.352C55.892 19.43 57.168 19.474 58.268 19.474H63.108C60.248 22.598 56.398 23.588 54.902 23.984C54.572 24.072 54.44 24.182 54.484 24.38C54.528 24.6 54.726 24.666 55.034 24.6C57.124 24.138 61.414 23.016 64.296 20.464C64.296 22.268 64.252 23.962 64.23 25.26C64.23 25.524 64.318 25.7 64.736 25.7C65.396 25.7 65.858 25.15 65.858 24.82C65.836 23.764 65.836 22.136 65.814 20.31V19.474H65.99C68.102 22.18 70.346 23.742 72.304 24.358C72.568 24.028 73.778 23.918 75.054 23.764C75.406 23.72 75.516 23.632 75.516 23.456C75.516 23.236 75.34 23.148 75.054 23.126ZM108.881 20.816C108.639 21.168 108.463 21.498 108.331 21.828V16.196H109.717C110.091 16.196 110.311 16.064 110.311 15.822C110.311 15.404 108.991 14.634 108.441 14.414C108.133 14.788 107.869 15.184 107.649 15.58H102.765C102.435 15.162 101.533 14.634 101.093 14.48C100.807 14.832 100.543 15.206 100.323 15.58H99.2894C98.0574 15.58 97.0674 15.514 96.0774 15.382L96.5834 15.074C96.8694 14.898 96.9794 14.744 96.8474 14.546C96.7374 14.37 96.4954 14.414 96.2534 14.524C95.7254 14.766 95.1974 14.986 94.6914 15.206V11.378H96.8474C97.2434 11.378 97.4414 11.246 97.4414 10.982C97.4414 10.608 96.4514 9.992 95.7914 9.684C95.5054 10.058 95.3074 10.388 95.1314 10.74H94.6914V6.692C95.2414 6.67 95.5054 6.472 95.5054 6.208C95.5054 5.878 94.7574 5.57 93.2174 5.46V10.74C92.0734 10.74 91.0174 10.63 89.9834 10.476C90.1814 11.312 90.9954 11.378 91.6334 11.378H93.2174V15.734C91.8754 16.174 90.7094 16.284 89.7194 16.086C90.0054 17.406 91.0174 18.198 91.5454 18.198C91.9414 18.198 92.0074 17.802 91.9414 17.406C92.3814 17.23 92.7994 17.032 93.2174 16.834V22.972C93.2174 23.566 92.8874 23.874 92.0734 23.874C91.3694 23.874 90.7314 23.764 90.3794 23.72C90.1594 23.698 89.9394 23.676 89.8954 23.918C89.8514 24.182 90.0054 24.204 90.2694 24.314C91.0394 24.622 92.1614 24.952 92.4034 25.48C93.7674 25.128 94.6914 24.534 94.6914 23.478V16.13L95.5714 15.668C95.8794 16.13 96.3854 16.196 96.8254 16.196H97.0014V22.642C96.3194 22.686 95.6154 22.576 95.1094 22.356C95.3514 23.874 96.3194 24.578 96.7814 24.578C97.1334 24.578 97.1774 24.226 97.1114 23.83C98.4314 23.39 99.6194 22.95 100.455 22.532C100.455 23.5 100.433 24.49 100.411 25.282C100.411 25.502 100.433 25.7 100.785 25.7C101.577 25.7 101.863 25.194 101.863 24.952C101.841 24.468 101.819 23.72 101.819 23.038C102.215 23.39 102.699 23.368 103.491 23.258L106.923 22.818C106.923 23.61 106.901 24.666 106.879 25.282C106.879 25.502 106.901 25.7 107.275 25.7C108.067 25.7 108.375 25.194 108.375 24.952C108.353 24.38 108.331 23.39 108.331 22.642L110.135 22.4C110.487 22.356 110.641 22.29 110.641 22.048C110.641 21.652 109.519 21.08 108.881 20.816ZM99.1574 7.616V13.248C98.0794 13.314 96.8914 13.336 95.9234 13.204C96.3414 14.04 97.1554 14.062 98.0354 13.996L104.547 13.534C104.547 14.018 104.525 14.458 104.503 14.81C104.503 15.03 104.525 15.25 104.921 15.25C105.757 15.25 106.087 14.722 106.087 14.458C106.065 14.15 106.043 13.842 106.043 13.446L109.145 13.226C109.607 13.204 109.805 13.05 109.805 12.786C109.805 12.324 108.441 11.642 107.649 11.356C107.363 11.774 107.055 12.302 106.857 12.72L106.043 12.786V7.616H108.727C109.145 7.616 109.387 7.462 109.387 7.198C109.387 6.736 107.979 5.944 107.319 5.68C106.967 6.098 106.659 6.56 106.417 7H102.875C100.389 7 98.1014 6.934 96.2314 6.67C96.4954 7.528 97.5294 7.616 98.0794 7.616H99.1574ZM104.547 8.98H100.631V7.616H104.547V8.98ZM100.631 10.96V9.596H104.547V10.96H100.631ZM100.631 11.576H104.547V12.874L100.631 13.16V11.576ZM100.455 17.648H98.3214V16.196H100.455V17.648ZM101.819 16.196H103.425V22.598C102.941 22.664 102.391 22.664 101.819 22.62V16.196ZM104.745 17.648V16.196H106.923V17.648H104.745ZM98.3214 18.264H100.455V19.98H98.3214V18.264ZM104.745 19.98V18.264H106.923V19.98H104.745ZM100.455 21.96C99.9054 22.136 99.1574 22.334 98.3214 22.466V20.596H100.455V21.96ZM106.923 20.596V22.18L104.745 22.444V20.596H106.923Z" fill="black"/>
<path d="M56.688 41.31C56.688 41.6087 56.7253 41.828 56.8 41.968C56.884 42.0987 57.038 42.192 57.262 42.248C57.4953 42.304 57.8593 42.332 58.354 42.332C58.382 42.332 58.396 42.36 58.396 42.416C58.396 42.472 58.382 42.5 58.354 42.5C57.9713 42.5 57.6727 42.4953 57.458 42.486L56.24 42.472L55.302 42.486C55.1247 42.4953 54.8867 42.5 54.588 42.5C54.5693 42.5 54.56 42.472 54.56 42.416C54.56 42.36 54.5693 42.332 54.588 42.332C54.9427 42.332 55.1993 42.3087 55.358 42.262C55.526 42.2153 55.638 42.1267 55.694 41.996C55.75 41.856 55.778 41.646 55.778 41.366V34.884C55.778 34.604 55.75 34.3987 55.694 34.268C55.638 34.1373 55.526 34.0487 55.358 34.002C55.1993 33.946 54.9427 33.918 54.588 33.918C54.5693 33.918 54.56 33.89 54.56 33.834C54.56 33.778 54.5693 33.75 54.588 33.75L55.288 33.764C55.68 33.7827 55.9927 33.792 56.226 33.792C56.4593 33.792 56.7207 33.778 57.01 33.75C57.122 33.75 57.2993 33.7453 57.542 33.736C57.7847 33.7173 57.9947 33.708 58.172 33.708C59.0307 33.708 59.7167 33.8993 60.23 34.282C60.7527 34.6647 61.014 35.248 61.014 36.032C61.014 36.648 60.86 37.166 60.552 37.586C60.2533 38.006 59.866 38.3187 59.39 38.524C58.914 38.7293 58.424 38.832 57.92 38.832C57.6493 38.832 57.4253 38.8087 57.248 38.762C57.22 38.762 57.206 38.7387 57.206 38.692C57.206 38.664 57.2107 38.636 57.22 38.608C57.2387 38.58 57.2573 38.5707 57.276 38.58C57.4253 38.6173 57.5933 38.636 57.78 38.636C58.396 38.636 58.914 38.4353 59.334 38.034C59.7633 37.6327 59.978 37.054 59.978 36.298C59.978 35.5607 59.7773 34.982 59.376 34.562C58.9747 34.1327 58.4613 33.918 57.836 33.918C57.5 33.918 57.2573 33.9367 57.108 33.974C56.9587 34.0113 56.8513 34.1 56.786 34.24C56.7207 34.3707 56.688 34.5947 56.688 34.912V41.31ZM68.2796 42.332C68.3076 42.332 68.3216 42.36 68.3216 42.416C68.3216 42.472 68.3076 42.5 68.2796 42.5C68.0649 42.5 67.8922 42.4953 67.7616 42.486L67.0056 42.472L66.2496 42.486C66.1189 42.4953 65.9462 42.5 65.7316 42.5C65.7036 42.5 65.6896 42.472 65.6896 42.416C65.6896 42.36 65.7036 42.332 65.7316 42.332C65.9836 42.332 66.1702 42.3087 66.2916 42.262C66.4129 42.206 66.4969 42.1127 66.5436 41.982C66.5902 41.842 66.6136 41.6367 66.6136 41.366V39.14C66.6136 38.5893 66.5062 38.1833 66.2916 37.922C66.0862 37.6513 65.7642 37.516 65.3256 37.516C65.0362 37.516 64.7422 37.5953 64.4436 37.754C64.1449 37.9033 63.8742 38.1133 63.6316 38.384V41.366C63.6316 41.6367 63.6549 41.842 63.7016 41.982C63.7482 42.1127 63.8322 42.206 63.9536 42.262C64.0749 42.3087 64.2616 42.332 64.5136 42.332C64.5416 42.332 64.5556 42.36 64.5556 42.416C64.5556 42.472 64.5416 42.5 64.5136 42.5C64.2989 42.5 64.1262 42.4953 63.9956 42.486L63.2396 42.472L62.4836 42.486C62.3529 42.4953 62.1802 42.5 61.9656 42.5C61.9376 42.5 61.9236 42.472 61.9236 42.416C61.9236 42.36 61.9376 42.332 61.9656 42.332C62.2176 42.332 62.4042 42.3087 62.5256 42.262C62.6469 42.206 62.7309 42.1127 62.7776 41.982C62.8242 41.842 62.8476 41.6367 62.8476 41.366V34.128C62.8476 33.792 62.8149 33.5493 62.7496 33.4C62.6842 33.2507 62.5676 33.176 62.3996 33.176C62.2596 33.176 62.0449 33.2413 61.7556 33.372H61.7276C61.6996 33.372 61.6762 33.3487 61.6576 33.302C61.6389 33.2553 61.6482 33.2273 61.6856 33.218L63.4636 32.35H63.5056C63.5429 32.35 63.5709 32.364 63.5896 32.392C63.6176 32.4107 63.6316 32.434 63.6316 32.462V38.146C63.9862 37.7353 64.3362 37.4367 64.6816 37.25C65.0362 37.054 65.4049 36.956 65.7876 36.956C66.3009 36.956 66.6976 37.1007 66.9776 37.39C67.2576 37.6793 67.3976 38.0993 67.3976 38.65V41.366C67.3976 41.6367 67.4209 41.842 67.4676 41.982C67.5142 42.1127 67.5982 42.206 67.7196 42.262C67.8409 42.3087 68.0276 42.332 68.2796 42.332ZM71.8219 42.682C71.2806 42.682 70.7999 42.5513 70.3799 42.29C69.9692 42.0193 69.6519 41.66 69.4279 41.212C69.2039 40.7547 69.0919 40.26 69.0919 39.728C69.0919 39.1213 69.2366 38.608 69.5259 38.188C69.8246 37.7587 70.2026 37.4413 70.6599 37.236C71.1266 37.0213 71.5979 36.914 72.0739 36.914C72.6246 36.914 73.1052 37.0493 73.5159 37.32C73.9266 37.5907 74.2392 37.95 74.4539 38.398C74.6779 38.8367 74.7899 39.3033 74.7899 39.798C74.7899 40.3767 74.6546 40.8853 74.3839 41.324C74.1132 41.7533 73.7492 42.0893 73.2919 42.332C72.8439 42.5653 72.3539 42.682 71.8219 42.682ZM72.2279 42.416C72.7412 42.416 73.1379 42.234 73.4179 41.87C73.6979 41.506 73.8379 40.946 73.8379 40.19C73.8379 39.6113 73.7399 39.0933 73.5439 38.636C73.3572 38.1787 73.0959 37.824 72.7599 37.572C72.4239 37.3107 72.0412 37.18 71.6119 37.18C71.1079 37.18 70.7159 37.362 70.4359 37.726C70.1652 38.09 70.0299 38.6127 70.0299 39.294C70.0299 39.8633 70.1232 40.386 70.3099 40.862C70.4966 41.338 70.7579 41.716 71.0939 41.996C71.4299 42.276 71.8079 42.416 72.2279 42.416ZM79.6411 41.772C79.6784 41.772 79.7064 41.7953 79.7251 41.842C79.7438 41.8793 79.7391 41.9073 79.7111 41.926C79.3658 42.1967 79.0531 42.388 78.7731 42.5C78.5024 42.612 78.2178 42.668 77.9191 42.668C77.5271 42.668 77.2051 42.5793 76.9531 42.402C76.7011 42.2247 76.5751 41.9307 76.5751 41.52V38.23C76.5751 37.9873 76.5564 37.8147 76.5191 37.712C76.4911 37.6093 76.4304 37.544 76.3371 37.516C76.2438 37.4787 76.0851 37.46 75.8611 37.46C75.8238 37.46 75.8051 37.432 75.8051 37.376C75.8051 37.3107 75.8238 37.278 75.8611 37.278C76.2344 37.2687 76.5378 37.1707 76.7711 36.984C77.0044 36.788 77.1398 36.5313 77.1771 36.214C77.1771 36.186 77.2144 36.172 77.2891 36.172C77.3544 36.172 77.3871 36.186 77.3871 36.214V37.25C77.8538 37.2407 78.5024 37.194 79.3331 37.11C79.3518 37.11 79.3704 37.1473 79.3891 37.222C79.4171 37.2873 79.4311 37.362 79.4311 37.446C79.4311 37.5207 79.4124 37.6 79.3751 37.684C79.3471 37.7587 79.3144 37.7913 79.2771 37.782C78.7638 37.6513 78.1338 37.5767 77.3871 37.558V41.044C77.3871 41.4267 77.4804 41.7113 77.6671 41.898C77.8631 42.0847 78.1384 42.178 78.4931 42.178C78.9224 42.178 79.2958 42.0473 79.6131 41.786L79.6411 41.772ZM83.2516 42.682C82.7102 42.682 82.2296 42.5513 81.8096 42.29C81.3989 42.0193 81.0816 41.66 80.8576 41.212C80.6336 40.7547 80.5216 40.26 80.5216 39.728C80.5216 39.1213 80.6662 38.608 80.9556 38.188C81.2542 37.7587 81.6322 37.4413 82.0896 37.236C82.5562 37.0213 83.0276 36.914 83.5036 36.914C84.0542 36.914 84.5349 37.0493 84.9456 37.32C85.3562 37.5907 85.6689 37.95 85.8836 38.398C86.1076 38.8367 86.2196 39.3033 86.2196 39.798C86.2196 40.3767 86.0842 40.8853 85.8136 41.324C85.5429 41.7533 85.1789 42.0893 84.7216 42.332C84.2736 42.5653 83.7836 42.682 83.2516 42.682ZM83.6576 42.416C84.1709 42.416 84.5676 42.234 84.8476 41.87C85.1276 41.506 85.2676 40.946 85.2676 40.19C85.2676 39.6113 85.1696 39.0933 84.9736 38.636C84.7869 38.1787 84.5256 37.824 84.1896 37.572C83.8536 37.3107 83.4709 37.18 83.0416 37.18C82.5376 37.18 82.1456 37.362 81.8656 37.726C81.5949 38.09 81.4596 38.6127 81.4596 39.294C81.4596 39.8633 81.5529 40.386 81.7396 40.862C81.9262 41.338 82.1876 41.716 82.5236 41.996C82.8596 42.276 83.2376 42.416 83.6576 42.416ZM90.1048 42.094C90.6648 42.178 91.1081 42.2667 91.4348 42.36C91.7615 42.444 92.0415 42.5933 92.2748 42.808C92.5081 43.032 92.6248 43.34 92.6248 43.732C92.6248 44.152 92.4661 44.572 92.1488 44.992C91.8315 45.4213 91.4021 45.7713 90.8608 46.042C90.3288 46.3127 89.7548 46.448 89.1388 46.448C88.4761 46.448 87.9395 46.2893 87.5288 45.972C87.1275 45.6547 86.9268 45.2487 86.9268 44.754C86.9268 44.0167 87.4588 43.2933 88.5228 42.584C87.8881 42.3973 87.5708 42.08 87.5708 41.632C87.5708 41.3707 87.6595 41.1187 87.8368 40.876C88.0235 40.624 88.2708 40.3953 88.5788 40.19C88.2148 40.0593 87.9348 39.8587 87.7388 39.588C87.5428 39.308 87.4448 38.9953 87.4448 38.65C87.4448 38.1647 87.6501 37.768 88.0608 37.46C88.4715 37.152 88.9895 36.998 89.6148 36.998C90.2308 36.998 90.7068 37.1427 91.0428 37.432C91.5375 37.1333 92.0368 36.984 92.5408 36.984C92.5688 36.984 92.5875 37.0167 92.5968 37.082C92.6155 37.1473 92.6248 37.2173 92.6248 37.292C92.6248 37.404 92.6108 37.516 92.5828 37.628C92.5548 37.74 92.5221 37.7867 92.4848 37.768C92.4568 37.7587 92.3541 37.7213 92.1768 37.656C92.0088 37.5907 91.8035 37.558 91.5608 37.558C91.4581 37.558 91.3415 37.5673 91.2108 37.586C91.4535 37.866 91.5748 38.1973 91.5748 38.58C91.5748 38.8973 91.4861 39.1913 91.3088 39.462C91.1315 39.7233 90.8841 39.9333 90.5668 40.092C90.2495 40.2507 89.8808 40.33 89.4608 40.33C89.1901 40.33 88.9521 40.302 88.7468 40.246C88.5881 40.358 88.4621 40.4933 88.3688 40.652C88.2755 40.8013 88.2288 40.9647 88.2288 41.142C88.2288 41.4313 88.3595 41.6367 88.6208 41.758C88.8915 41.87 89.2928 41.968 89.8248 42.052L90.1048 42.094ZM89.2648 37.208C88.9848 37.208 88.7561 37.3013 88.5788 37.488C88.4108 37.6747 88.3268 37.964 88.3268 38.356C88.3268 38.8973 88.4668 39.3313 88.7468 39.658C89.0361 39.9753 89.3721 40.134 89.7548 40.134C90.0348 40.134 90.2635 40.0313 90.4408 39.826C90.6181 39.6113 90.7068 39.2893 90.7068 38.86C90.7068 38.3747 90.5621 37.978 90.2728 37.67C89.9928 37.362 89.6568 37.208 89.2648 37.208ZM89.6988 46.028C90.1561 46.028 90.5481 45.944 90.8748 45.776C91.2108 45.608 91.4628 45.384 91.6308 45.104C91.8081 44.8333 91.8968 44.5393 91.8968 44.222C91.8968 43.858 91.7801 43.578 91.5468 43.382C91.3135 43.186 91.0381 43.0507 90.7208 42.976C90.4128 42.9013 89.9741 42.8267 89.4048 42.752C89.1155 42.7147 88.9148 42.682 88.8028 42.654C88.4668 42.8687 88.2055 43.102 88.0188 43.354C87.8415 43.606 87.7528 43.9233 87.7528 44.306C87.7528 44.8287 87.9255 45.244 88.2708 45.552C88.6255 45.8693 89.1015 46.028 89.6988 46.028ZM96.6234 36.97C96.8288 36.97 97.0248 37.026 97.2114 37.138C97.3981 37.25 97.4914 37.3853 97.4914 37.544C97.4914 37.6653 97.4494 37.768 97.3654 37.852C97.2908 37.936 97.1788 37.978 97.0294 37.978C96.9454 37.978 96.8708 37.964 96.8054 37.936C96.7494 37.8987 96.6794 37.8473 96.5954 37.782C96.5114 37.7073 96.4321 37.6513 96.3574 37.614C96.2828 37.5767 96.1941 37.558 96.0914 37.558C95.9701 37.558 95.8394 37.6093 95.6994 37.712C95.5688 37.8053 95.3588 38.02 95.0694 38.356V41.366C95.0694 41.646 95.1021 41.8513 95.1674 41.982C95.2421 42.1127 95.3728 42.206 95.5594 42.262C95.7461 42.3087 96.0354 42.332 96.4274 42.332C96.4648 42.332 96.4834 42.36 96.4834 42.416C96.4834 42.472 96.4648 42.5 96.4274 42.5C96.1288 42.5 95.8908 42.4953 95.7134 42.486L94.6774 42.472L93.9074 42.486C93.7861 42.4953 93.6181 42.5 93.4034 42.5C93.3754 42.5 93.3614 42.472 93.3614 42.416C93.3614 42.36 93.3754 42.332 93.4034 42.332C93.6554 42.332 93.8421 42.3087 93.9634 42.262C94.0848 42.206 94.1641 42.1127 94.2014 41.982C94.2481 41.8513 94.2714 41.646 94.2714 41.366V38.594C94.2714 38.2767 94.2341 38.048 94.1594 37.908C94.0848 37.768 93.9588 37.698 93.7814 37.698C93.6321 37.698 93.3801 37.768 93.0254 37.908H92.9974C92.9601 37.908 92.9321 37.8893 92.9134 37.852C92.9041 37.8053 92.9181 37.7727 92.9554 37.754L94.5794 36.984C94.5981 36.9747 94.6261 36.97 94.6634 36.97C94.7474 36.97 94.8361 37.0773 94.9294 37.292C95.0228 37.5067 95.0694 37.782 95.0694 38.118V38.132C95.4521 37.684 95.7554 37.3807 95.9794 37.222C96.2034 37.054 96.4181 36.97 96.6234 36.97ZM102.339 36.914C102.722 36.914 103.076 37.0167 103.403 37.222C103.73 37.4273 103.991 37.726 104.187 38.118C104.383 38.51 104.481 38.9673 104.481 39.49C104.481 40.19 104.322 40.7827 104.005 41.268C103.688 41.744 103.296 42.0987 102.829 42.332C102.372 42.5653 101.919 42.682 101.471 42.682C101.182 42.682 100.92 42.654 100.687 42.598C100.463 42.542 100.23 42.4487 99.987 42.318V45.216C99.987 45.496 100.02 45.7013 100.085 45.832C100.16 45.9627 100.295 46.0513 100.491 46.098C100.687 46.154 100.986 46.182 101.387 46.182C101.406 46.182 101.415 46.21 101.415 46.266C101.415 46.322 101.406 46.35 101.387 46.35C101.07 46.35 100.818 46.3453 100.631 46.336L99.609 46.322L98.839 46.336C98.7084 46.3453 98.5357 46.35 98.321 46.35C98.293 46.35 98.279 46.322 98.279 46.266C98.279 46.21 98.293 46.182 98.321 46.182C98.573 46.182 98.7597 46.154 98.881 46.098C99.0024 46.0513 99.0864 45.9627 99.133 45.832C99.1797 45.7013 99.203 45.496 99.203 45.216V38.636C99.203 38.3 99.1657 38.062 99.091 37.922C99.0164 37.7727 98.8857 37.698 98.699 37.698C98.4937 37.698 98.2464 37.7633 97.957 37.894L97.929 37.908C97.8917 37.908 97.8684 37.8847 97.859 37.838C97.8404 37.7913 97.845 37.7587 97.873 37.74L99.427 36.998C99.4457 36.9887 99.4784 36.984 99.525 36.984C99.6557 36.984 99.763 37.082 99.847 37.278C99.931 37.474 99.9777 37.754 99.987 38.118C100.78 37.3153 101.564 36.914 102.339 36.914ZM101.891 42.388C102.386 42.388 102.792 42.1733 103.109 41.744C103.426 41.3053 103.585 40.6987 103.585 39.924C103.585 39.14 103.412 38.5333 103.067 38.104C102.722 37.6653 102.283 37.446 101.751 37.446C101.424 37.446 101.121 37.5253 100.841 37.684C100.561 37.8427 100.276 38.0667 99.987 38.356V41.506C100.239 41.7953 100.514 42.0147 100.813 42.164C101.112 42.3133 101.471 42.388 101.891 42.388ZM111.057 37.096C111.085 37.096 111.099 37.124 111.099 37.18C111.099 37.236 111.085 37.264 111.057 37.264C110.824 37.264 110.623 37.348 110.455 37.516C110.287 37.684 110.129 37.9593 109.979 38.342L108.271 42.892C107.926 43.7973 107.599 44.502 107.291 45.006C106.993 45.5193 106.68 45.8833 106.353 46.098C106.036 46.322 105.667 46.434 105.247 46.434C105.042 46.434 104.874 46.3873 104.743 46.294C104.603 46.2007 104.533 46.0653 104.533 45.888C104.533 45.7573 104.575 45.6547 104.659 45.58C104.743 45.5053 104.846 45.468 104.967 45.468C105.089 45.468 105.191 45.482 105.275 45.51C105.359 45.538 105.448 45.5847 105.541 45.65C105.56 45.6593 105.611 45.6873 105.695 45.734C105.789 45.7807 105.901 45.804 106.031 45.804C106.255 45.804 106.465 45.706 106.661 45.51C106.867 45.314 107.081 44.9827 107.305 44.516C107.539 44.0587 107.809 43.424 108.117 42.612L105.989 38.258C105.775 37.8473 105.611 37.5813 105.499 37.46C105.387 37.3293 105.243 37.264 105.065 37.264C105.047 37.264 105.037 37.236 105.037 37.18C105.037 37.124 105.047 37.096 105.065 37.096L105.541 37.11C105.653 37.1193 105.807 37.124 106.003 37.124L106.899 37.11C107.03 37.1007 107.212 37.096 107.445 37.096C107.464 37.096 107.473 37.124 107.473 37.18C107.473 37.236 107.464 37.264 107.445 37.264C106.904 37.264 106.633 37.3713 106.633 37.586C106.633 37.642 106.657 37.7167 106.703 37.81L108.551 41.604L109.671 38.384C109.746 38.16 109.783 37.9827 109.783 37.852C109.783 37.6373 109.699 37.488 109.531 37.404C109.363 37.3107 109.088 37.264 108.705 37.264C108.687 37.264 108.677 37.236 108.677 37.18C108.677 37.124 108.687 37.096 108.705 37.096C108.957 37.096 109.149 37.1007 109.279 37.11L110.119 37.124L110.623 37.11C110.717 37.1007 110.861 37.096 111.057 37.096ZM116.419 35.388C116.419 35.752 116.507 36.0693 116.685 36.34C116.862 36.6107 117.077 36.8393 117.329 37.026C117.581 37.2033 117.935 37.432 118.393 37.712C118.878 38.0013 119.256 38.244 119.527 38.44C119.797 38.636 120.026 38.888 120.213 39.196C120.409 39.4947 120.507 39.854 120.507 40.274C120.507 40.722 120.395 41.128 120.171 41.492C119.947 41.856 119.615 42.1453 119.177 42.36C118.747 42.5653 118.229 42.668 117.623 42.668C116.904 42.668 116.246 42.5047 115.649 42.178C115.602 42.15 115.569 42.1173 115.551 42.08C115.541 42.0427 115.532 41.9867 115.523 41.912L115.341 40.008C115.331 39.9707 115.35 39.9473 115.397 39.938C115.453 39.9287 115.485 39.9427 115.495 39.98C115.644 40.652 115.919 41.2307 116.321 41.716C116.731 42.2013 117.273 42.444 117.945 42.444C118.411 42.444 118.803 42.318 119.121 42.066C119.447 41.8047 119.611 41.394 119.611 40.834C119.611 40.414 119.517 40.05 119.331 39.742C119.144 39.434 118.915 39.182 118.645 38.986C118.383 38.7807 118.024 38.5427 117.567 38.272C117.119 38.0013 116.764 37.768 116.503 37.572C116.251 37.376 116.036 37.1287 115.859 36.83C115.681 36.5313 115.593 36.1813 115.593 35.78C115.593 35.3133 115.714 34.9167 115.957 34.59C116.209 34.254 116.531 34.0067 116.923 33.848C117.324 33.68 117.749 33.596 118.197 33.596C118.747 33.596 119.293 33.708 119.835 33.932C119.975 33.9787 120.045 34.058 120.045 34.17L120.143 35.78C120.143 35.8173 120.119 35.836 120.073 35.836C120.026 35.836 119.998 35.8173 119.989 35.78C119.914 35.2947 119.713 34.8467 119.387 34.436C119.06 34.016 118.589 33.806 117.973 33.806C117.45 33.806 117.058 33.96 116.797 34.268C116.545 34.5667 116.419 34.94 116.419 35.388ZM126.362 41.716C126.39 41.716 126.413 41.7347 126.432 41.772C126.46 41.8 126.464 41.828 126.446 41.856C125.811 42.3973 125.13 42.668 124.402 42.668C123.851 42.668 123.375 42.542 122.974 42.29C122.572 42.038 122.269 41.7113 122.064 41.31C121.868 40.8993 121.77 40.456 121.77 39.98C121.77 39.42 121.9 38.9113 122.162 38.454C122.432 37.9967 122.796 37.6373 123.254 37.376C123.711 37.1053 124.22 36.97 124.78 36.97C125.284 36.97 125.676 37.096 125.956 37.348C126.236 37.5907 126.376 37.9267 126.376 38.356C126.376 38.468 126.362 38.552 126.334 38.608C126.315 38.6547 126.273 38.678 126.208 38.678L122.764 38.706C122.717 38.958 122.694 39.2007 122.694 39.434C122.694 40.246 122.89 40.9087 123.282 41.422C123.674 41.926 124.215 42.178 124.906 42.178C125.438 42.178 125.918 42.024 126.348 41.716H126.362ZM124.304 37.25C123.921 37.25 123.599 37.362 123.338 37.586C123.086 37.8007 122.908 38.1087 122.806 38.51L125.41 38.454C125.41 38.0713 125.307 37.7773 125.102 37.572C124.906 37.3573 124.64 37.25 124.304 37.25ZM127.54 42.5C127.512 42.5 127.498 42.472 127.498 42.416C127.498 42.36 127.512 42.332 127.54 42.332C127.792 42.332 127.979 42.3087 128.1 42.262C128.222 42.206 128.306 42.1127 128.352 41.982C128.399 41.842 128.422 41.6367 128.422 41.366V34.128C128.422 33.792 128.39 33.5493 128.324 33.4C128.259 33.2507 128.142 33.176 127.974 33.176C127.834 33.176 127.62 33.2413 127.33 33.372H127.302C127.274 33.372 127.251 33.3487 127.232 33.302C127.223 33.2553 127.232 33.2273 127.26 33.218L129.052 32.364C129.071 32.3547 129.094 32.35 129.122 32.35C129.141 32.35 129.164 32.364 129.192 32.392C129.23 32.4107 129.248 32.434 129.248 32.462V41.366C129.248 41.6367 129.267 41.8373 129.304 41.968C129.351 42.0987 129.435 42.192 129.556 42.248C129.678 42.304 129.864 42.332 130.116 42.332C130.144 42.332 130.158 42.36 130.158 42.416C130.158 42.472 130.144 42.5 130.116 42.5C129.911 42.5 129.743 42.4953 129.612 42.486L128.828 42.472L128.072 42.486C127.942 42.4953 127.764 42.5 127.54 42.5ZM135.686 41.716C135.714 41.716 135.737 41.7347 135.756 41.772C135.784 41.8 135.789 41.828 135.77 41.856C135.135 42.3973 134.454 42.668 133.726 42.668C133.175 42.668 132.699 42.542 132.298 42.29C131.897 42.038 131.593 41.7113 131.388 41.31C131.192 40.8993 131.094 40.456 131.094 39.98C131.094 39.42 131.225 38.9113 131.486 38.454C131.757 37.9967 132.121 37.6373 132.578 37.376C133.035 37.1053 133.544 36.97 134.104 36.97C134.608 36.97 135 37.096 135.28 37.348C135.56 37.5907 135.7 37.9267 135.7 38.356C135.7 38.468 135.686 38.552 135.658 38.608C135.639 38.6547 135.597 38.678 135.532 38.678L132.088 38.706C132.041 38.958 132.018 39.2007 132.018 39.434C132.018 40.246 132.214 40.9087 132.606 41.422C132.998 41.926 133.539 42.178 134.23 42.178C134.762 42.178 135.243 42.024 135.672 41.716H135.686ZM133.628 37.25C133.245 37.25 132.923 37.362 132.662 37.586C132.41 37.8007 132.233 38.1087 132.13 38.51L134.734 38.454C134.734 38.0713 134.631 37.7773 134.426 37.572C134.23 37.3573 133.964 37.25 133.628 37.25ZM139.457 42.668C138.85 42.668 138.341 42.5373 137.931 42.276C137.52 42.0053 137.217 41.66 137.021 41.24C136.825 40.82 136.727 40.3767 136.727 39.91C136.727 39.3127 136.876 38.7947 137.175 38.356C137.473 37.908 137.856 37.5673 138.323 37.334C138.799 37.0913 139.284 36.97 139.779 36.97C140.189 36.97 140.563 37.054 140.899 37.222C141.244 37.3807 141.417 37.5813 141.417 37.824C141.417 37.9453 141.37 38.0527 141.277 38.146C141.193 38.23 141.076 38.272 140.927 38.272C140.675 38.272 140.469 38.118 140.311 37.81C140.189 37.6233 140.059 37.4833 139.919 37.39C139.779 37.2967 139.578 37.25 139.317 37.25C138.794 37.25 138.383 37.4553 138.085 37.866C137.795 38.2673 137.651 38.8087 137.651 39.49C137.651 40.274 137.847 40.918 138.239 41.422C138.631 41.926 139.219 42.178 140.003 42.178C140.572 42.178 141.048 42.024 141.431 41.716H141.445C141.473 41.716 141.496 41.73 141.515 41.758C141.543 41.786 141.547 41.8093 141.529 41.828C141.202 42.1173 140.871 42.332 140.535 42.472C140.208 42.6027 139.849 42.668 139.457 42.668ZM146.333 41.772C146.37 41.772 146.398 41.7953 146.417 41.842C146.435 41.8793 146.431 41.9073 146.403 41.926C146.057 42.1967 145.745 42.388 145.465 42.5C145.194 42.612 144.909 42.668 144.611 42.668C144.219 42.668 143.897 42.5793 143.645 42.402C143.393 42.2247 143.267 41.9307 143.267 41.52V38.23C143.267 37.9873 143.248 37.8147 143.211 37.712C143.183 37.6093 143.122 37.544 143.029 37.516C142.935 37.4787 142.777 37.46 142.553 37.46C142.515 37.46 142.497 37.432 142.497 37.376C142.497 37.3107 142.515 37.278 142.553 37.278C142.926 37.2687 143.229 37.1707 143.463 36.984C143.696 36.788 143.831 36.5313 143.869 36.214C143.869 36.186 143.906 36.172 143.981 36.172C144.046 36.172 144.079 36.186 144.079 36.214V37.25C144.545 37.2407 145.194 37.194 146.025 37.11C146.043 37.11 146.062 37.1473 146.081 37.222C146.109 37.2873 146.123 37.362 146.123 37.446C146.123 37.5207 146.104 37.6 146.067 37.684C146.039 37.7587 146.006 37.7913 145.969 37.782C145.455 37.6513 144.825 37.5767 144.079 37.558V41.044C144.079 41.4267 144.172 41.7113 144.359 41.898C144.555 42.0847 144.83 42.178 145.185 42.178C145.614 42.178 145.987 42.0473 146.305 41.786L146.333 41.772Z" fill="black"/>
</svg>
