<svg width="40" height="40" viewBox="0 0 40 40" fill="none" xmlns="http://www.w3.org/2000/svg">
<g clip-path="url(#clip0_107_1191)">
<g clip-path="url(#clip1_107_1191)">
<path d="M26.0807 23.8088C27.6542 21.6617 28.359 18.9996 28.054 16.3552C27.749 13.7108 26.4568 11.279 24.4359 9.5464C22.4149 7.81381 19.8143 6.90817 17.1544 7.01066C14.4944 7.11316 11.9712 8.21623 10.0896 10.0992C8.20794 11.9821 7.10668 14.5061 7.00609 17.1662C6.9055 19.8262 7.813 22.4262 9.54703 24.4459C11.2811 26.4656 13.7138 27.7561 16.3584 28.0591C19.003 28.3622 21.6646 27.6556 23.8106 26.0806H23.809C23.8577 26.1456 23.9097 26.2073 23.9682 26.2674L30.2245 32.5237C30.5292 32.8286 30.9425 33 31.3736 33.0001C31.8047 33.0003 32.2181 32.8292 32.5231 32.5245C32.828 32.2198 32.9994 31.8064 32.9995 31.3754C32.9997 30.9443 32.8286 30.5309 32.5239 30.2259L26.2676 23.9697C26.2095 23.9109 26.147 23.8582 26.0807 23.8088ZM26.5 17.5623C26.5 18.736 26.2688 19.8982 25.8197 20.9825C25.3705 22.0669 24.7122 23.0522 23.8823 23.8821C23.0523 24.712 22.0671 25.3703 20.9827 25.8195C19.8984 26.2686 18.7362 26.4998 17.5625 26.4998C16.3888 26.4998 15.2266 26.2686 14.1423 25.8195C13.0579 25.3703 12.0727 24.712 11.2427 23.8821C10.4128 23.0522 9.75447 22.0669 9.30532 20.9825C8.85617 19.8982 8.62499 18.736 8.62499 17.5623C8.62499 15.1919 9.56662 12.9187 11.2427 11.2425C12.9188 9.56644 15.1921 8.62481 17.5625 8.62481C19.9329 8.62481 22.2062 9.56644 23.8823 11.2425C25.5584 12.9187 26.5 15.1919 26.5 17.5623Z" fill="black"/>
</g>
</g>
<defs>
<clipPath id="clip0_107_1191">
<rect width="40" height="40" fill="white"/>
</clipPath>
<clipPath id="clip1_107_1191">
<rect width="26" height="26" fill="white" transform="translate(7 7)"/>
</clipPath>
</defs>
</svg>
