<svg width="35" height="35" viewBox="0 0 35 35" fill="none" xmlns="http://www.w3.org/2000/svg">
<path d="M12.2384 27.1709C12.0433 27.5706 11.7157 27.8903 11.3113 28.0754C10.9069 28.2606 10.4509 28.2999 10.0208 28.1865C9.59073 28.0731 9.21329 27.8141 8.95277 27.4536C8.69226 27.0931 8.56479 26.6535 8.5921 26.2096C8.6194 25.7657 8.79978 25.3449 9.10251 25.0191C9.40523 24.6933 9.81157 24.4825 10.2523 24.4227C10.693 24.3628 11.1408 24.4577 11.5195 24.691C11.8981 24.9243 12.1841 25.2818 12.3288 25.7023" stroke="#474747" stroke-width="1.5"/>
<path d="M22.928 27.1709C22.7329 27.5706 22.4052 27.8903 22.0009 28.0754C21.5965 28.2606 21.1404 28.2999 20.7103 28.1865C20.2803 28.0731 19.9028 27.8141 19.6423 27.4536C19.3818 27.0931 19.2543 26.6535 19.2816 26.2096C19.3089 25.7657 19.4893 25.3449 19.7921 25.0191C20.0948 24.6933 20.5011 24.4825 20.9418 24.4227C21.3826 24.3628 21.8304 24.4577 22.209 24.691C22.5876 24.9243 22.8737 25.2818 23.0183 25.7023" stroke="#474747" stroke-width="1.5"/>
<path d="M3.82977 9.625L5.16598 21.6508H25.8771L27.2133 9.625H32.5582" stroke="#474747" stroke-width="1.5"/>
</svg>
