<svg width="35" height="35" viewBox="0 0 35 35" fill="none" xmlns="http://www.w3.org/2000/svg">
<path d="M9 19C12.6 11 23.4 11 27 19" stroke="black" stroke-width="1.5" stroke-linecap="round" stroke-linejoin="round"/>
<path d="M18 23C17.606 23 17.2159 22.9224 16.8519 22.7716C16.488 22.6209 16.1573 22.3999 15.8787 22.1213C15.6001 21.8427 15.3791 21.512 15.2284 21.1481C15.0776 20.7841 15 20.394 15 20C15 19.606 15.0776 19.2159 15.2284 18.8519C15.3791 18.488 15.6001 18.1573 15.8787 17.8787C16.1573 17.6001 16.488 17.3791 16.8519 17.2284C17.2159 17.0776 17.606 17 18 17C18.7956 17 19.5587 17.3161 20.1213 17.8787C20.6839 18.4413 21 19.2044 21 20C21 20.7956 20.6839 21.5587 20.1213 22.1213C19.5587 22.6839 18.7956 23 18 23Z" stroke="black" stroke-width="1.5" stroke-linecap="round" stroke-linejoin="round"/>
</svg>
