<svg width="40" height="40" viewBox="0 0 40 40" fill="none" xmlns="http://www.w3.org/2000/svg">
<path d="M32.1702 10.3922H26.3617V9.01961C26.3617 8.21876 26.0411 7.45071 25.4706 6.88442C24.9 6.31814 24.1261 6 23.3191 6H16.6809C15.8739 6 15.1 6.31814 14.5294 6.88442C13.9589 7.45071 13.6383 8.21876 13.6383 9.01961V10.3922H7.82979C7.60971 10.3922 7.39865 10.4789 7.24304 10.6334C7.08742 10.7878 7 10.9973 7 11.2157C7 11.4341 7.08742 11.6436 7.24304 11.798C7.39865 11.9525 7.60971 12.0392 7.82979 12.0392H9.21277V32.0784C9.21277 32.5881 9.41675 33.0768 9.77986 33.4372C10.143 33.7975 10.6354 34 11.1489 34H28.8511C29.3646 34 29.857 33.7975 30.2201 33.4372C30.5832 33.0768 30.7872 32.5881 30.7872 32.0784V12.0392H32.1702C32.3903 12.0392 32.6013 11.9525 32.757 11.798C32.9126 11.6436 33 11.4341 33 11.2157C33 10.9973 32.9126 10.7878 32.757 10.6334C32.6013 10.4789 32.3903 10.3922 32.1702 10.3922ZM15.2979 9.01961C15.2979 8.65559 15.4436 8.30647 15.7029 8.04907C15.9623 7.79167 16.3141 7.64706 16.6809 7.64706H23.3191C23.6859 7.64706 24.0377 7.79167 24.2971 8.04907C24.5564 8.30647 24.7021 8.65559 24.7021 9.01961V10.3922H15.2979V9.01961ZM29.1277 32.0784C29.1277 32.1512 29.0985 32.2211 29.0466 32.2725C28.9948 32.324 28.9244 32.3529 28.8511 32.3529H11.1489C11.0756 32.3529 11.0052 32.324 10.9534 32.2725C10.9015 32.2211 10.8723 32.1512 10.8723 32.0784V12.0392H29.1277V32.0784ZM17.5106 17.8039V26.5882C17.5106 26.8066 17.4232 27.0161 17.2676 27.1706C17.112 27.325 16.9009 27.4118 16.6809 27.4118C16.4608 27.4118 16.2497 27.325 16.0941 27.1706C15.9385 27.0161 15.8511 26.8066 15.8511 26.5882V17.8039C15.8511 17.5855 15.9385 17.376 16.0941 17.2216C16.2497 17.0672 16.4608 16.9804 16.6809 16.9804C16.9009 16.9804 17.112 17.0672 17.2676 17.2216C17.4232 17.376 17.5106 17.5855 17.5106 17.8039ZM24.1489 17.8039V26.5882C24.1489 26.8066 24.0615 27.0161 23.9059 27.1706C23.7503 27.325 23.5392 27.4118 23.3191 27.4118C23.0991 27.4118 22.888 27.325 22.7324 27.1706C22.5768 27.0161 22.4894 26.8066 22.4894 26.5882V17.8039C22.4894 17.5855 22.5768 17.376 22.7324 17.2216C22.888 17.0672 23.0991 16.9804 23.3191 16.9804C23.5392 16.9804 23.7503 17.0672 23.9059 17.2216C24.0615 17.376 24.1489 17.5855 24.1489 17.8039Z" fill="black"/>
</svg>
