<svg width="35" height="35" viewBox="0 0 35 35" fill="none" xmlns="http://www.w3.org/2000/svg">
<path d="M12.2384 27.1709C12.0433 27.5706 11.7157 27.8903 11.3113 28.0754C10.9069 28.2606 10.4509 28.2999 10.0208 28.1865C9.59073 28.0731 9.21329 27.8141 8.95277 27.4536C8.69226 27.0931 8.56479 26.6535 8.5921 26.2096C8.6194 25.7657 8.79978 25.3449 9.10251 25.0191C9.40523 24.6933 9.81157 24.4825 10.2523 24.4227C10.693 24.3628 11.1408 24.4577 11.5195 24.691C11.8981 24.9243 12.1841 25.2818 12.3288 25.7023" stroke="#474747" stroke-width="1.5"/>
<path d="M22.928 27.1709C22.7329 27.5706 22.4052 27.8903 22.0009 28.0754C21.5965 28.2606 21.1404 28.2999 20.7103 28.1865C20.2803 28.0731 19.9028 27.8141 19.6423 27.4536C19.3818 27.0931 19.2543 26.6535 19.2816 26.2096C19.3089 25.7657 19.4893 25.3449 19.7921 25.0191C20.0948 24.6933 20.5011 24.4825 20.9418 24.4227C21.3826 24.3628 21.8304 24.4577 22.209 24.691C22.5876 24.9243 22.8737 25.2818 23.0183 25.7023" stroke="#474747" stroke-width="1.5"/>
<path d="M3.82977 9.625L5.16598 21.6508H25.8771L27.2133 9.625H32.5582" stroke="#474747" stroke-width="1.5"/>
<path d="M11.8742 8.11L13.5 3L15.1266 8.11078L20 9.81644L15.164 11.6551L13.5 17L11.836 11.6551L7 9.81644L11.8742 8.11Z" fill="#F5C413" stroke="#F5C413" stroke-width="2" stroke-linejoin="round"/>
<path d="M21.068 14.0617C21.066 14.0444 21.058 14.0286 21.0454 14.0172C21.0328 14.0058 21.0167 13.9997 21 14C20.9833 13.9997 20.9672 14.0058 20.9546 14.0172C20.942 14.0286 20.934 14.0444 20.932 14.0617C20.7728 15.7233 20.656 16.2092 19.0616 16.3658C19.045 16.3671 19.0294 16.3748 19.018 16.3875C19.0066 16.4001 19.0002 16.4168 19 16.4342C19 16.47 19.0264 16.4992 19.0616 16.5025C20.6336 16.6567 20.7704 17.2492 20.932 18.9383C20.9341 18.9555 20.9423 18.9712 20.9548 18.9826C20.9673 18.994 20.9834 19.0001 21 19C21.0352 19 21.064 18.9733 21.068 18.9383C21.2296 17.2492 21.3656 16.6567 22.9384 16.5025C22.955 16.5013 22.9706 16.4935 22.982 16.4809C22.9934 16.4682 22.9998 16.4515 23 16.4342C22.9998 16.4168 22.9934 16.4001 22.982 16.3875C22.9706 16.3748 22.955 16.3671 22.9384 16.3658C21.344 16.2092 21.2264 15.7242 21.068 14.0617Z" fill="#F5C413" stroke="#F5C413"/>
</svg>
